<?xml version="1.0" encoding="UTF-8"?>
<svg id="Layer_1" data-name="Layer 1" xmlns="http://www.w3.org/2000/svg" xmlns:xlink="http://www.w3.org/1999/xlink" viewBox="0 0 1358.5 209">
  <defs>
    <style>
      .cls-1 {
        stroke: #000;
        stroke-width: 6.53px;
      }

      .cls-1, .cls-2 {
        fill: none;
      }

      .cls-3 {
        fill: #3e016f;
      }

      .cls-4 {
        fill: #8353fd;
      }

      .cls-5 {
        fill: #e60054;
      }

      .cls-6 {
        clip-path: url(#clippath);
      }
    </style>
    <clipPath id="clippath">
      <rect class="cls-2" width="1358.5" height="209"/>
    </clipPath>
  </defs>
  <title>RWS Developers</title>
  <g class="cls-6">
      <path d="M190.29,75.49h16.71c1.39,0,2.52,1.12,2.52,2.51v12.93c0,.21.17.38.39.38.17,0,.32-.11.37-.27,2.61-8.77,11.12-16.56,25.92-16.56,1.45,0,3.07.08,4.74.38,1.19.21,2.05,1.27,2.05,2.47v13.46c0,1.47-1.27,2.63-2.74,2.49-1.39-.13-2.69-.19-4.05-.19-14.61,0-26.67,8.8-26.67,29.44v38.44c0,1.38-1.12,2.51-2.52,2.51h-16.71c-1.39,0-2.52-1.12-2.52-2.51v-82.98c0-1.38,1.12-2.51,2.52-2.51h0Z"/>
      <path d="M389.73,135.73h14.63c1.18,0,2.18.83,2.45,1.97,1.9,7.87,8.71,11.06,18.16,11.06s15.97-3.22,15.97-10.66c0-5.42-3.57-8.12-10.36-9.47l-16.31-3.55c-17.83-4.06-24.8-13.37-24.8-25.21,0-16.58,14.27-26.06,35.5-26.06s33.87,9.63,35.36,26.55c.13,1.46-1.04,2.72-2.52,2.72h-13.26c-1.18,0-2.18-.82-2.45-1.97-1.93-8.12-8.13-10.9-16.96-10.9-9.68,0-14.61,3.22-14.61,9.31,0,5.08,3.57,8.29,10.7,9.64l16.82,3.72c13.93,3.22,25.31,9.31,25.31,24.71,0,19.46-18.01,27.58-38.56,27.58-21.7,0-36.14-8.76-37.59-26.73-.12-1.46,1.05-2.72,2.52-2.72h0Z"/>
      <path d="M302.9,155.59l15.61-51.33,15.45,51.3c1.72,5.72,7,9.63,13,9.63h3.02c6.12,0,11.48-4.08,13.09-9.96l20.99-76.57c.44-1.59-.77-3.17-2.43-3.17h-15.46c-1.16,0-2.17.79-2.44,1.91l-15.92,64.59c-.05.2-.23.34-.43.34s-.37-.13-.42-.32l-18.58-64.7c-.31-1.08-1.3-1.82-2.42-1.82h-15.06c-1.12,0-2.11.74-2.42,1.82l-18.58,64.7c-.05.19-.23.32-.42.32s-.38-.14-.43-.34l-15.92-64.59c-.27-1.12-1.29-1.91-2.44-1.91h-15.29c-1.66,0-2.86,1.57-2.43,3.16l20.84,76.55c1.6,5.89,6.97,9.98,13.1,9.98h3.03c5.98,0,11.25-3.9,12.99-9.6h0Z"/>
      <path class="cls-4" d="M93.27,128.45c-30.18,0-54.64-24.37-54.64-54.43,0-4.89.65-9.63,1.86-14.14C17.17,66.09,0,87.28,0,112.47c0,15.61,6.6,29.69,17.17,39.61l37.47,37.32,37.47-37.32c.39-.37.78-.74,1.16-1.12v-22.51Z"/>
      <path class="cls-5" d="M93.27,19.59c-25.27,0-46.53,17.08-52.78,40.29,4.51-1.2,9.25-1.84,14.15-1.84,30.18,0,54.64,24.37,54.64,54.43,0,15.03-6.12,28.64-16.01,38.49l37.47-37.32c10.57-9.92,17.17-24,17.17-39.61,0-30.06-24.46-54.43-54.64-54.43h0Z"/>
      <path class="cls-3" d="M54.64,58.04c-4.89,0-9.63.64-14.15,1.84-1.21,4.51-1.86,9.25-1.86,14.14,0,30.06,24.46,54.43,54.64,54.43v22.51c9.89-9.85,16.01-23.46,16.01-38.49,0-30.06-24.46-54.43-54.64-54.43h0Z"/>
      <line class="cls-1" x1="571.48" y1="0" x2="571.48" y2="209"/>
      <path d="M679.51,163.28v-91.44h34.62c28.48,0,43.24,16.33,43.24,45.72s-14.76,45.72-43.24,45.72h-34.62ZM712.17,146.3c18.68,0,25.21-8.62,25.21-28.74s-6.53-28.74-25.21-28.74h-13.06v57.47h13.06ZM799.89,164.59c-17.24,0-34.22-9.54-34.22-35.4s16.07-35.14,34.09-35.14,32.26,9.14,32.26,34.88c0,2.48-.13,3.79-.39,5.23h-47.81c1.04,11.36,6.92,15.94,16.33,15.94,8.75,0,12.54-3.53,14.11-9.01h16.85c-3.4,15.54-15.41,23.51-31.22,23.51ZM783.82,122.92h30.17c-.26-7.84-4.31-14.37-14.76-14.37-8.88,0-14.11,4.96-15.41,14.37ZM857.81,163.28l-24.69-67.92h19.46l16.98,49.64h.65l16.98-49.64h19.33l-24.69,67.92h-24.03ZM941.87,164.59c-17.24,0-34.22-9.54-34.22-35.4s16.07-35.14,34.09-35.14,32.26,9.14,32.26,34.88c0,2.48-.13,3.79-.39,5.23h-47.81c1.05,11.36,6.92,15.94,16.33,15.94,8.75,0,12.54-3.53,14.11-9.01h16.85c-3.4,15.54-15.41,23.51-31.22,23.51ZM925.8,122.92h30.17c-.26-7.84-4.31-14.37-14.76-14.37-8.88,0-14.11,4.96-15.41,14.37ZM984.26,163.28v-91.44h19.07v91.44h-19.07ZM1047.74,164.59c-17.11,0-34.09-10.58-34.09-35.27s16.98-35.27,34.09-35.27,34.09,10.58,34.09,35.27-16.98,35.27-34.09,35.27ZM1047.74,148.78c9.14,0,16.2-6.01,16.2-19.46s-7.05-19.46-16.2-19.46-16.2,6.01-16.2,19.46,7.05,19.46,16.2,19.46ZM1092.18,188.1v-92.74h19.07v9.8c2.48-5.88,9.93-11.1,19.99-11.1,14.24,0,29.78,10.32,29.78,35.27s-15.54,35.27-29.78,35.27c-10.06,0-17.5-5.23-19.99-11.1v34.62h-19.07ZM1126.67,148.78c8.49,0,16.33-6.14,16.33-19.46s-7.84-19.46-16.33-19.46-16.2,6.14-16.2,19.46,7.84,19.46,16.2,19.46ZM1202.99,164.59c-17.24,0-34.22-9.54-34.22-35.4s16.07-35.14,34.09-35.14,32.26,9.14,32.26,34.88c0,2.48-.13,3.79-.39,5.23h-47.81c1.05,11.36,6.92,15.94,16.33,15.94,8.75,0,12.54-3.53,14.11-9.01h16.85c-3.4,15.54-15.41,23.51-31.22,23.51ZM1186.92,122.92h30.17c-.26-7.84-4.31-14.37-14.76-14.37-8.88,0-14.11,4.96-15.41,14.37ZM1245.39,163.28v-67.92h19.07v16.46h.52c2.35-9.93,8.75-17.24,19.59-17.24,1.57,0,3.27.13,5.23.65v16.07c-2.09-.26-3.66-.39-5.36-.39-10.19,0-19.99,5.88-19.99,22.34v30.04h-19.07ZM1323.41,164.59c-18.16,0-29.26-7.97-29.39-23.64h17.11c.65,6.4,4.96,9.41,12.41,9.41,6.4,0,10.71-2.22,10.71-7.05,0-3.14-2.09-5.09-6.53-6.01l-12.54-2.61c-14.24-3.27-19.33-10.84-19.33-19.86,0-13.19,11.36-20.77,27.82-20.77,18.16,0,27.69,8.88,27.95,23.51h-15.94c-.78-6.79-5.23-9.27-11.76-9.27s-9.54,2.35-9.54,6.01c0,3.4,2.48,5.62,7.05,6.53l12.8,2.74c10.71,2.35,19.59,7.32,19.59,19.33,0,15.15-13.98,21.68-30.44,21.68Z"/>
  </g>
</svg>