<svg id="Layer_1" data-name="Layer 1" height="50" xmlns="http://www.w3.org/2000/svg" viewBox="0 0 80 48">
  <defs>
    <style>
      .cls-1 {
        fill: #00a89f;
      }

      .cls-2 {
        fill: #003d7f;
      }

      .cls-3 {
        fill: #808184;
      }
    </style>
  </defs>
  <title>Artboard 1</title>
  <rect class="cls-1" y="15.24" width="8.03" height="8.03" />
  <circle class="cls-2" cx="8.63" cy="23.87" r="5.2" />
  <rect class="cls-1" y="24.47" width="8.03" height="8.03" />
  <rect class="cls-1" x="9.23" y="15.24" width="8.03" height="8.03" />
  <path class="cls-3"
    d="M73.84,32.75c3.62,0,6.16-1.92,6.16-5.15v-.05c0-2.86-1.9-4.17-5.55-5.06-3.3-.78-4.09-1.38-4.09-2.71v-.05c0-1.13,1-2,2.81-2a7.85,7.85,0,0,1,4.69,1.77l1.62-2.29A9.52,9.52,0,0,0,73.22,15c-3.43,0-5.89,2.05-5.89,5v.05c0,3.18,2.07,4.27,5.74,5.16,3.21.74,3.9,1.4,3.9,2.63v.05c0,1.31-1.19,2.17-3.06,2.17a8,8,0,0,1-5.45-2.24L66.64,30a10.62,10.62,0,0,0,7.2,2.76M45.42,32.5H48l4.21-12.31L56.43,32.5H59l6-17.25H61.84L57.75,28,53.54,15.2H51L46.79,28,42.7,15.25H39.45ZM26.35,23.8V18h4.42c2.24,0,3.57,1,3.57,2.86v.05c0,1.75-1.38,2.88-3.55,2.88Zm-3,8.7h3v-6h3.8l4.24,6H38L33.31,26a5.18,5.18,0,0,0,4.11-5.23v0A5.19,5.19,0,0,0,36,17a7,7,0,0,0-5-1.72H23.32Z" />
</svg>