<svg width="170" height="50" xmlns="http://www.w3.org/2000/svg"><path d="M81.85 20.62h-7.33l-2.3 6.76c-.11.34-.64.34-1.18.34-.25 0-.47-.06-.47-.31a.92.92 0 0 1 .05-.25l6.68-19.9c.11-.28.65-.42 1.26-.42.28 0 .42.17.54.48l6.62 19.84a.92.92 0 0 1 0 .25c0 .25-.25.31-.44.31-.85 0-1.21-.09-1.32-.48zm-6.91-1.46h6.46l-3-9.16a7.26 7.26 0 0 1-.23-1 8.82 8.82 0 0 1-.17 1zm13.33 13.55c-.45 0-1.06-.14-1.06-.33V14.81c0-1.66 4.57-2.61 6.48-2.61 2.44 0 3.84 1 3.84 4.74v5.95c0 2.72-.45 4.83-3.84 4.83a10.18 10.18 0 0 1-4.91-1.41v5.78c0 .51-.23.62-.51.62zm5.17-6.42c1.82 0 2.52-.87 2.52-3.37v-5.73c0-2.83-.92-3.59-2.5-3.59s-4.54.79-4.68 1.55v9.51c.22.56 2.61 1.63 4.66 1.63zm7.68 6.42c-.44 0-1.06-.14-1.06-.33V14.81c0-1.66 4.57-2.61 6.48-2.61 2.44 0 3.85 1 3.85 4.74v5.95c0 2.72-.45 4.83-3.85 4.83a10.18 10.18 0 0 1-4.91-1.41v5.78c0 .51-.22.62-.51.62zm5.17-6.42c1.82 0 2.52-.87 2.52-3.37v-5.73c0-2.83-.92-3.59-2.49-3.59s-4.55.79-4.69 1.55v9.51c.2.56 2.61 1.63 4.66 1.63zm10.44.02c2.16 0 4.85-.58 4.85-3.39 0-5.16-9.34-5.78-9.34-11.79 0-2.83 2-4.29 5.75-4.29 1.49 0 4.83.28 4.83 1s-.23 1-.54 1h-.11a20.54 20.54 0 0 0-4-.45c-3 0-4.27 1-4.27 2.78 0 4.8 9.35 5.47 9.35 11.81 0 3.65-3 4.86-6.29 4.86a19 19 0 0 1-4.88-.65c-.39-.14-.42-.25-.42-.53 0-.48.14-.93.47-.93h.09a17 17 0 0 0 4.51.58zm11-12.31v10c0 1.32.56 2.3 2 2.3a5.77 5.77 0 0 0 1.4-.25c.25 0 .42.4.42 1s-1.68.65-2.3.65c-1.68 0-3.11-.87-3.11-3.54V14h-2c-.26 0-.43-.14-.43-.36 0-.48.12-1.1.54-1.1h1.91V9c0-.2.61-.34 1.12-.34.31 0 .45.28.45.62v3.28H131c.29 0 .43.15.43.37 0 .45-.09 1.09-.54 1.09zm4.88 2.91c0-3.36 1.68-4.71 5.5-4.71h.06c3.84 0 5.52 1.35 5.52 4.71v6.15c0 3.37-1.68 4.66-5.52 4.66h-.09c-3.81 0-5.47-1.29-5.47-4.66zm5.58 9.43c2.92 0 4-1.09 4-3.28v-6.15c0-2.24-1-3.34-4-3.34h-.08c-2.92 0-4 1.1-4 3.34v6.15c0 2.19 1 3.28 3.9 3.28zm13.03-12.74c-2 0-3.6.73-3.6 1v12.5c0 .51-.22.62-.53.62s-1-.14-1-.34V14c0-.7 1.94-1.77 5.11-1.77.81 0 2.58.08 2.58.65s-.2 1-.42 1a10.06 10.06 0 0 0-2.14-.28zm9.37 14.12c-4.69 0-5.84-2.16-5.84-7.16v-3.42c0-3.71 1.88-4.94 5.19-4.94h.42c3.31 0 5 1.32 5 4v.71c0 3.34-1.27 4.43-9.09 4.43 0 3.51 1 5.08 4.6 5.08 1.54 0 3-.45 3.95-.45.23 0 .37.14.37.93 0 .22-.11.3-.37.36a19.38 19.38 0 0 1-4.23.46zm3.22-11.54c0-1.76-1.09-2.72-3.73-2.72-2.27 0-3.81.68-3.81 3.65v3c6.51 0 7.54-.57 7.54-3.29zM35.08 19.71c0 2.7-1.51 3.5-3.77 3.5h-3.38V12h3.44c2.15 0 3.71 1 3.71 3.18v4.55zm-3.3-12.26H23.5a.71.71 0 0 0-.77.69v19c0 .59.53.65 1.17.65h7.34c6 0 9.15-2.09 9.15-7.62v-5.33c0-6-4.25-7.39-8.61-7.39zm25.2 18c0 1.18-.31 2.3-.64 2.3H45.45c-1.74 0-2.05-.38-2.05-.71V8c0-.59 1.32-.8 2.8-.87s2.36.06 2.36.77v15.16a.17.17 0 0 0 .18.18h7.48c.71 0 .83.68.76 2.25zM12 28.14c-3.3 0-5.21-.4-5.72-.75-.28-.21-.45-.39-.18-2.22.14-.93.68-2.18 1.45-1.89s7.59 1.57 7.59-1.06c0-2.87-8.71-1.87-8.71-9.25 0-3.31 1.44-5.84 7.72-5.84 3.71 0 5 .64 5.29.79s.54.65.3 2.25c-.18 1.17-.82 1.86-1.34 1.7-1.39-.43-6.9-1.09-6.9 1 0 2.87 8.71 1.91 8.71 9.42 0 3.44-1.54 5.85-8.21 5.85zM65.25 5.8l-.41-.64-.41-.66a.43.43 0 0 0-.58-.13L61.29 6l-1.54 1-.44-1.74-.73-2.92a.46.46 0 0 0-.19-.34.44.44 0 0 0-.32 0l-.74.18-.74.18a.46.46 0 0 0-.26.19.44.44 0 0 0 0 .32L57 5.75l.44 1.75-1.82-.12-3-.21a.42.42 0 0 0-.31.1.38.38 0 0 0-.14.28l-.06.76v.75a.42.42 0 0 0 .1.31.44.44 0 0 0 .29.14l3 .21 1.81.13-.68 1.67-1.13 2.79a.44.44 0 0 0 0 .32.43.43 0 0 0 .23.23l.71.28.7.28a.44.44 0 0 0 .32 0 .4.4 0 0 0 .23-.23l1.11-2.79.68-1.67 1.4 1.16 2.32 1.93a.42.42 0 0 0 .3.1.43.43 0 0 0 .29-.15l.49-.58.49-.58a.43.43 0 0 0 .09-.3.43.43 0 0 0-.15-.29l-2.31-1.93L61 8.93l1.55-1 2.56-1.6a.42.42 0 0 0 .19-.26.42.42 0 0 0-.05-.27zM10.92 39.18a1.86 1.86 0 0 1-.66 1.54 2.86 2.86 0 0 1-1.87.54h-.67v2.4h-1v-6.42h1.8a2.78 2.78 0 0 1 1.8.49 1.77 1.77 0 0 1 .6 1.45zm-3.2 1.2h.56a2 2 0 0 0 1.18-.29 1.18 1.18 0 0 0 0-1.7 1.65 1.65 0 0 0-1.05-.27h-.69zm7.42 3.28l-.21-.66a2.1 2.1 0 0 1-.71.6 2.2 2.2 0 0 1-.92.16 1.52 1.52 0 0 1-1.11-.39 1.42 1.42 0 0 1-.41-1.09 1.28 1.28 0 0 1 .56-1.13 3.13 3.13 0 0 1 1.7-.42h.84v-.26a1 1 0 0 0-.21-.69.88.88 0 0 0-.68-.23 2.17 2.17 0 0 0-.72.11 6 6 0 0 0-.66.26l-.33-.74a3.33 3.33 0 0 1 .87-.32 4.07 4.07 0 0 1 .88-.11 2.09 2.09 0 0 1 1.4.41 1.57 1.57 0 0 1 .48 1.27v3.27zM13.6 43a1.25 1.25 0 0 0 .9-.31 1.15 1.15 0 0 0 .34-.89v-.42h-.62a2.2 2.2 0 0 0-1.06.24.75.75 0 0 0-.33.67.63.63 0 0 0 .19.5.82.82 0 0 0 .58.21zm6.18-4.29a2.47 2.47 0 0 1 .52 0l-.1 1a2.31 2.31 0 0 0-.46 0 1.34 1.34 0 0 0-1 .4 1.49 1.49 0 0 0-.38 1v2.54h-1V38.8h.81l.13.86h.06A1.91 1.91 0 0 1 19 39a1.48 1.48 0 0 1 .78-.29zM23 42.92a2.45 2.45 0 0 0 .75-.12v.78a1.83 1.83 0 0 1-.44.12 3.33 3.33 0 0 1-.56 0c-1 0-1.47-.51-1.47-1.55v-2.56h-.66v-.46l.71-.38.35-1h.64v1.05h1.39v.79h-1.38v2.6a.71.71 0 0 0 .19.55.67.67 0 0 0 .48.18zm8.38-1.7a2.62 2.62 0 0 1-.61 1.86 2.16 2.16 0 0 1-1.7.67 2.28 2.28 0 0 1-1.2-.31 2 2 0 0 1-.81-.88 3.11 3.11 0 0 1-.28-1.34 2.65 2.65 0 0 1 .61-1.84 2.2 2.2 0 0 1 1.71-.67 2.16 2.16 0 0 1 1.67.68 2.65 2.65 0 0 1 .61 1.83zm-3.53 0c0 1.13.41 1.69 1.24 1.69s1.23-.56 1.23-1.69-.41-1.66-1.24-1.66a1 1 0 0 0-.94.43 2.15 2.15 0 0 0-.29 1.23zM35 39.59h-1.18v4.07h-1v-4.07H32v-.49l.8-.31v-.32a1.77 1.77 0 0 1 .4-1.28 1.68 1.68 0 0 1 1.24-.41 3.29 3.29 0 0 1 1.06.22l-.27.78a2.47 2.47 0 0 0-.73-.12.62.62 0 0 0-.52.21 1.19 1.19 0 0 0-.16.66v.31H35zm5 3.33a2.46 2.46 0 0 0 .76-.12v.78a1.83 1.83 0 0 1-.44.12 3.43 3.43 0 0 1-.56 0c-1 0-1.47-.51-1.47-1.55v-2.56h-.66v-.46l.71-.38.35-1h.64v1.05h1.38v.79h-1.4v2.6a.74.74 0 0 0 .18.55.69.69 0 0 0 .51.18zm6 .74h-1v-3a1.23 1.23 0 0 0-.23-.83.85.85 0 0 0-.71-.28 1.13 1.13 0 0 0-1 .39 2.15 2.15 0 0 0-.31 1.3v2.41h-1v-6.82h1v1.73a6.93 6.93 0 0 1-.05.89h.07a1.44 1.44 0 0 1 .58-.54 1.9 1.9 0 0 1 .88-.2A1.57 1.57 0 0 1 46 40.5zm3.55.09a2.37 2.37 0 0 1-1.78-.66 2.54 2.54 0 0 1-.64-1.82 2.71 2.71 0 0 1 .6-1.87 2 2 0 0 1 1.63-.69 2 2 0 0 1 1.52.59 2.25 2.25 0 0 1 .56 1.61v.56H48.2a1.55 1.55 0 0 0 .38 1.08 1.31 1.31 0 0 0 1 .38 3.45 3.45 0 0 0 .8-.08 3.77 3.77 0 0 0 .8-.27v.84a3.33 3.33 0 0 1-.77.26 4.69 4.69 0 0 1-.86.07zm-.19-4.25a1 1 0 0 0-.79.31 1.43 1.43 0 0 0-.35.91h2.2a1.29 1.29 0 0 0-.29-.91 1 1 0 0 0-.77-.31zm6.75 1.6v2.56h-1v-6.42h1.81a3 3 0 0 1 1.84.46 1.67 1.67 0 0 1 .6 1.41 1.75 1.75 0 0 1-1.25 1.71l1.82 2.84h-1.2l-1.58-2.56zm0-.87h.73A1.6 1.6 0 0 0 57.9 40a1 1 0 0 0 .33-.8.89.89 0 0 0-.35-.79 2.07 2.07 0 0 0-1.08-.23h-.69zm10.63 3.43H65.6l-1.09-3.83q-.08-.26-.18-.72c-.07-.32-.11-.54-.13-.66 0 .19-.07.43-.14.73s-.12.52-.16.67l-1.07 3.81h-1.14l-.83-3.21-.86-3.21h1.07L62 41q.21.9.3 1.59c0-.25.08-.52.15-.83s.12-.56.17-.75l1-3.75h1L65.79 41a11.76 11.76 0 0 1 .33 1.56 10.65 10.65 0 0 1 .32-1.6l.91-3.73h1.06zM73 41.92a1.61 1.61 0 0 1-.62 1.34 2.7 2.7 0 0 1-1.71.49 4.05 4.05 0 0 1-1.79-.34v-1a5 5 0 0 0 .94.33 4.42 4.42 0 0 0 .92.11 1.54 1.54 0 0 0 .92-.23A.77.77 0 0 0 72 42a.81.81 0 0 0-.28-.61 3.93 3.93 0 0 0-1.12-.6 2.83 2.83 0 0 1-1.25-.79 1.71 1.71 0 0 1-.36-1.1 1.54 1.54 0 0 1 .57-1.26 2.35 2.35 0 0 1 1.53-.46 4.49 4.49 0 0 1 1.84.4l-.33.86a4 4 0 0 0-1.53-.36 1.19 1.19 0 0 0-.78.22.74.74 0 0 0-.26.59.79.79 0 0 0 .11.42 1.09 1.09 0 0 0 .34.34 5.07 5.07 0 0 0 .87.42 4.57 4.57 0 0 1 1 .55 1.59 1.59 0 0 1 .48.57 1.67 1.67 0 0 1 .17.73zm6.24-1.74h2.36v3.22a6.37 6.37 0 0 1-1.11.27 8.34 8.34 0 0 1-1.16.08 2.92 2.92 0 0 1-2.25-.86 3.53 3.53 0 0 1-.79-2.44 3.29 3.29 0 0 1 .89-2.45 3.39 3.39 0 0 1 2.46-.87 4.93 4.93 0 0 1 1.91.38l-.37.88a3.7 3.7 0 0 0-1.57-.36 2.1 2.1 0 0 0-1.62.64 2.5 2.5 0 0 0-.6 1.77 2.62 2.62 0 0 0 .54 1.79 1.94 1.94 0 0 0 1.55.61 5.42 5.42 0 0 0 1.09-.12v-1.64h-1.33zm6.26-1.47a2.3 2.3 0 0 1 .51 0l-.1 1a2.3 2.3 0 0 0-.45 0 1.33 1.33 0 0 0-1 .4 1.44 1.44 0 0 0-.38 1v2.54H83V38.8h.81l.14.86a1.91 1.91 0 0 1 .63-.69 1.51 1.51 0 0 1 .92-.26zm5.72 2.51a2.62 2.62 0 0 1-.61 1.86 2.16 2.16 0 0 1-1.7.67 2.28 2.28 0 0 1-1.2-.31 2 2 0 0 1-.8-.88 3 3 0 0 1-.29-1.34 2.65 2.65 0 0 1 .61-1.84 2.2 2.2 0 0 1 1.71-.67 2.16 2.16 0 0 1 1.67.68 2.65 2.65 0 0 1 .61 1.83zm-3.53 0c0 1.13.41 1.69 1.24 1.69s1.23-.56 1.23-1.69-.41-1.66-1.24-1.66A1 1 0 0 0 88 40a2.24 2.24 0 0 0-.31 1.22zm8.15 2.44L95.7 43h-.06a1.51 1.51 0 0 1-.61.53 2.06 2.06 0 0 1-.91.19A1.55 1.55 0 0 1 92.37 42v-3.2h1v3a1.33 1.33 0 0 0 .23.84.88.88 0 0 0 .71.28 1.13 1.13 0 0 0 1-.39 2.19 2.19 0 0 0 .31-1.31V38.8h1v4.86zm4.75.09a1.7 1.7 0 0 1-1.43-.66h-.06q.06.61.06.75v2h-1v-7H99l.15.65a1.61 1.61 0 0 1 1.45-.74 1.7 1.7 0 0 1 1.42.66 3 3 0 0 1 .5 1.85 3 3 0 0 1-.51 1.86 1.7 1.7 0 0 1-1.42.63zm-.25-4.19a1.08 1.08 0 0 0-.9.36 1.85 1.85 0 0 0-.28 1.15v.15a2.26 2.26 0 0 0 .28 1.29 1.06 1.06 0 0 0 .92.4.93.93 0 0 0 .82-.44 2.86 2.86 0 0 0 0-2.49 1 1 0 0 0-.84-.42z" fill="#fff"/></svg>